<?xml version="1.0" encoding="UTF-8"?>
<svg id="ITSaber_Logo_Traced_From_Image" xmlns="http://www.w3.org/2000/svg" width="1536" height="1024" viewBox="0 0 1536 1024">
  <title>I.T. SABER Logo - Traced SVG</title>
  <desc>High-fidelity traced SVG based on the provided raster logo image. Text and shapes are vector paths.</desc>
  <rect id="background" width="1536" height="1024" fill="#000000"/>
  <g id="logo_vector_paths">
    <path id="white_shapes" fill="#F7F7F7" fill-rule="evenodd" d="M 564.0 557.0 L 564.0 560.0 L 567.0 561.0 L 1409.0 561.0 L 1410.0 560.0 L 1424.0 560.0 L 1423.0 557.0 Z M 748.0 505.0 L 748.0 525.0 L 749.0 526.0 L 767.0 526.0 L 768.0 525.0 L 768.0 505.0 Z M 616.0 505.0 L 616.0 526.0 L 635.0 526.0 L 635.0 505.0 Z M 1329.0 424.0 L 1329.0 526.0 L 1347.0 526.0 L 1348.0 525.0 L 1348.0 490.0 L 1349.0 489.0 L 1366.0 489.0 L 1398.0 526.0 L 1423.0 526.0 L 1390.0 490.0 L 1391.0 489.0 L 1402.0 489.0 L 1410.0 487.0 L 1414.0 484.0 L 1417.0 479.0 L 1419.0 470.0 L 1419.0 443.0 L 1416.0 432.0 L 1410.0 426.0 L 1404.0 424.0 Z M 1348.0 443.0 L 1349.0 442.0 L 1396.0 442.0 L 1400.0 447.0 L 1400.0 466.0 L 1395.0 471.0 L 1349.0 471.0 L 1348.0 470.0 Z M 1219.0 424.0 L 1219.0 526.0 L 1302.0 526.0 L 1303.0 525.0 L 1303.0 507.0 L 1239.0 507.0 L 1238.0 506.0 L 1238.0 483.0 L 1239.0 482.0 L 1277.0 482.0 L 1277.0 465.0 L 1239.0 465.0 L 1238.0 464.0 L 1238.0 443.0 L 1239.0 442.0 L 1303.0 442.0 L 1303.0 424.0 Z M 1100.0 424.0 L 1099.0 425.0 L 1099.0 449.0 L 1100.0 450.0 L 1099.0 454.0 L 1099.0 498.0 L 1100.0 499.0 L 1099.0 525.0 L 1100.0 526.0 L 1171.0 526.0 L 1179.0 524.0 L 1184.0 521.0 L 1189.0 512.0 L 1189.0 486.0 L 1187.0 481.0 L 1184.0 478.0 L 1175.0 474.0 L 1183.0 471.0 L 1186.0 468.0 L 1189.0 461.0 L 1189.0 438.0 L 1186.0 431.0 L 1180.0 426.0 L 1173.0 424.0 Z M 1118.0 483.0 L 1119.0 482.0 L 1168.0 482.0 L 1171.0 485.0 L 1171.0 504.0 L 1167.0 508.0 L 1119.0 508.0 L 1118.0 507.0 Z M 1118.0 442.0 L 1119.0 441.0 L 1167.0 441.0 L 1171.0 446.0 L 1171.0 460.0 L 1166.0 465.0 L 1119.0 465.0 L 1118.0 464.0 Z M 1009.0 424.0 L 961.0 526.0 L 980.0 526.0 L 990.0 504.0 L 1044.0 504.0 L 1054.0 526.0 L 1075.0 526.0 L 1063.0 501.0 L 1063.0 499.0 L 1040.0 453.0 L 1040.0 451.0 L 1028.0 428.0 L 1028.0 426.0 L 1026.0 424.0 Z M 1017.0 445.0 L 1020.0 448.0 L 1026.0 464.0 L 1035.0 482.0 L 1034.0 486.0 L 1000.0 486.0 L 999.0 485.0 Z M 859.0 426.0 L 853.0 432.0 L 851.0 436.0 L 851.0 469.0 L 854.0 476.0 L 859.0 481.0 L 868.0 484.0 L 922.0 484.0 L 923.0 485.0 L 923.0 506.0 L 922.0 507.0 L 866.0 507.0 L 865.0 506.0 L 865.0 496.0 L 861.0 496.0 L 848.0 500.0 L 848.0 510.0 L 851.0 519.0 L 857.0 524.0 L 864.0 526.0 L 924.0 526.0 L 932.0 524.0 L 935.0 522.0 L 940.0 514.0 L 941.0 509.0 L 941.0 482.0 L 939.0 474.0 L 934.0 468.0 L 928.0 465.0 L 871.0 465.0 L 868.0 462.0 L 868.0 445.0 L 870.0 442.0 L 921.0 442.0 L 923.0 444.0 L 923.0 453.0 L 940.0 449.0 L 940.0 439.0 L 936.0 430.0 L 933.0 427.0 L 925.0 424.0 L 865.0 424.0 Z M 646.0 424.0 L 646.0 442.0 L 684.0 442.0 L 685.0 443.0 L 685.0 526.0 L 703.0 526.0 L 704.0 525.0 L 704.0 443.0 L 705.0 442.0 L 743.0 442.0 L 743.0 424.0 Z M 564.0 424.0 L 564.0 526.0 L 583.0 526.0 L 583.0 424.0 Z M 487.0 348.0 L 487.0 655.0 L 491.0 655.0 L 491.0 348.0 Z M 162.0 410.0 L 163.0 412.0 L 178.0 422.0 L 194.0 431.0 L 288.0 370.0 L 295.0 367.0 L 424.0 449.0 L 425.0 444.0 L 424.0 408.0 L 295.0 326.0 L 292.0 326.0 L 270.0 341.0 Z"/>
    <path id="teal_shapes" fill="#00B9D6" fill-rule="evenodd" d="M 1371.0 590.0 L 1371.0 620.0 L 1375.0 620.0 L 1375.0 600.0 L 1376.0 599.0 L 1388.0 620.0 L 1393.0 620.0 L 1393.0 590.0 L 1389.0 590.0 L 1389.0 609.0 L 1388.0 610.0 L 1383.0 603.0 L 1376.0 590.0 Z M 1321.0 590.0 L 1321.0 620.0 L 1325.0 620.0 L 1325.0 590.0 Z M 1290.0 590.0 L 1291.0 594.0 L 1297.0 594.0 L 1299.0 598.0 L 1298.0 619.0 L 1303.0 620.0 L 1303.0 595.0 L 1304.0 594.0 L 1311.0 594.0 L 1311.0 590.0 Z M 1261.0 590.0 L 1261.0 614.0 L 1262.0 616.0 L 1267.0 620.0 L 1278.0 619.0 L 1282.0 613.0 L 1282.0 590.0 L 1278.0 590.0 L 1278.0 609.0 L 1277.0 613.0 L 1273.0 616.0 L 1269.0 616.0 L 1265.0 611.0 L 1265.0 590.0 Z M 1236.0 590.0 L 1236.0 619.0 L 1237.0 620.0 L 1253.0 620.0 L 1253.0 616.0 L 1242.0 616.0 L 1241.0 615.0 L 1241.0 590.0 Z M 1128.0 590.0 L 1128.0 592.0 L 1136.0 606.0 L 1136.0 619.0 L 1141.0 620.0 L 1141.0 608.0 L 1150.0 590.0 L 1145.0 591.0 L 1139.0 602.0 L 1133.0 591.0 Z M 1099.0 590.0 L 1099.0 594.0 L 1106.0 594.0 L 1107.0 595.0 L 1107.0 620.0 L 1111.0 620.0 L 1112.0 619.0 L 1112.0 595.0 L 1113.0 594.0 L 1120.0 594.0 L 1120.0 590.0 Z M 1085.0 590.0 L 1085.0 619.0 L 1089.0 620.0 L 1090.0 619.0 L 1090.0 590.0 Z M 1055.0 590.0 L 1055.0 620.0 L 1059.0 620.0 L 1060.0 608.0 L 1061.0 607.0 L 1063.0 607.0 L 1065.0 609.0 L 1071.0 620.0 L 1075.0 620.0 L 1075.0 618.0 L 1069.0 608.0 L 1074.0 604.0 L 1075.0 601.0 L 1074.0 594.0 L 1070.0 590.0 Z M 1059.0 595.0 L 1060.0 594.0 L 1068.0 594.0 L 1070.0 596.0 L 1070.0 601.0 L 1068.0 603.0 L 1061.0 604.0 L 1059.0 602.0 L 1060.0 599.0 Z M 1023.0 590.0 L 1023.0 614.0 L 1024.0 616.0 L 1029.0 620.0 L 1037.0 620.0 L 1041.0 618.0 L 1044.0 613.0 L 1044.0 590.0 L 1040.0 590.0 L 1039.0 595.0 L 1040.0 608.0 L 1039.0 613.0 L 1035.0 616.0 L 1031.0 616.0 L 1027.0 611.0 L 1027.0 590.0 Z M 963.0 590.0 L 963.0 598.0 L 964.0 599.0 L 963.0 618.0 L 964.0 620.0 L 982.0 620.0 L 982.0 616.0 L 969.0 616.0 L 968.0 615.0 L 968.0 607.0 L 969.0 606.0 L 980.0 606.0 L 980.0 602.0 L 969.0 602.0 L 968.0 601.0 L 968.0 595.0 L 974.0 593.0 L 981.0 594.0 L 982.0 590.0 Z M 842.0 590.0 L 843.0 594.0 L 850.0 594.0 L 851.0 595.0 L 851.0 620.0 L 855.0 620.0 L 856.0 619.0 L 856.0 595.0 L 857.0 594.0 L 864.0 594.0 L 864.0 590.0 Z M 829.0 590.0 L 829.0 620.0 L 833.0 620.0 L 834.0 619.0 L 834.0 591.0 Z M 781.0 590.0 L 781.0 620.0 L 786.0 619.0 L 786.0 602.0 L 787.0 601.0 L 798.0 620.0 L 803.0 620.0 L 803.0 590.0 L 798.0 590.0 L 798.0 608.0 L 797.0 609.0 L 787.0 590.0 Z M 730.0 590.0 L 730.0 619.0 L 734.0 620.0 L 735.0 619.0 L 735.0 590.0 Z M 685.0 590.0 L 685.0 620.0 L 689.0 620.0 L 690.0 619.0 L 690.0 590.0 Z M 625.0 590.0 L 625.0 620.0 L 644.0 620.0 L 643.0 615.0 L 632.0 616.0 L 630.0 614.0 L 630.0 607.0 L 631.0 606.0 L 642.0 606.0 L 641.0 602.0 L 631.0 602.0 L 630.0 601.0 L 630.0 595.0 L 631.0 594.0 L 643.0 594.0 L 644.0 590.0 Z M 594.0 590.0 L 595.0 592.0 L 595.0 609.0 L 594.0 610.0 L 595.0 620.0 L 600.0 619.0 L 600.0 609.0 L 601.0 608.0 L 604.0 608.0 L 606.0 610.0 L 611.0 620.0 L 616.0 620.0 L 610.0 608.0 L 615.0 603.0 L 614.0 593.0 L 610.0 590.0 Z M 600.0 595.0 L 601.0 594.0 L 609.0 595.0 L 610.0 596.0 L 609.0 602.0 L 606.0 604.0 L 601.0 604.0 L 600.0 603.0 Z M 580.0 590.0 L 564.0 590.0 L 564.0 619.0 L 565.0 620.0 L 569.0 620.0 L 569.0 613.0 L 571.0 609.0 L 578.0 609.0 L 584.0 605.0 L 585.0 596.0 Z M 569.0 595.0 L 570.0 594.0 L 577.0 594.0 L 580.0 597.0 L 580.0 601.0 L 577.0 604.0 L 570.0 604.0 L 569.0 603.0 Z M 1411.0 589.0 L 1408.0 590.0 L 1404.0 594.0 L 1404.0 601.0 L 1408.0 605.0 L 1417.0 608.0 L 1419.0 610.0 L 1419.0 612.0 L 1415.0 616.0 L 1411.0 616.0 L 1407.0 613.0 L 1404.0 613.0 L 1403.0 615.0 L 1405.0 618.0 L 1409.0 620.0 L 1417.0 620.0 L 1422.0 617.0 L 1423.0 608.0 L 1421.0 605.0 L 1410.0 601.0 L 1408.0 599.0 L 1408.0 596.0 L 1411.0 593.0 L 1416.0 593.0 L 1419.0 596.0 L 1421.0 596.0 L 1422.0 593.0 L 1419.0 590.0 Z M 1346.0 589.0 L 1341.0 591.0 L 1338.0 594.0 L 1335.0 602.0 L 1336.0 612.0 L 1340.0 618.0 L 1344.0 620.0 L 1352.0 620.0 L 1356.0 618.0 L 1359.0 614.0 L 1361.0 603.0 L 1358.0 594.0 L 1354.0 590.0 Z M 1346.0 593.0 L 1351.0 593.0 L 1355.0 597.0 L 1356.0 600.0 L 1356.0 609.0 L 1355.0 612.0 L 1351.0 616.0 L 1345.0 616.0 L 1342.0 613.0 L 1340.0 608.0 L 1341.0 598.0 Z M 1211.0 589.0 L 1204.0 593.0 L 1201.0 600.0 L 1201.0 609.0 L 1203.0 615.0 L 1206.0 618.0 L 1210.0 620.0 L 1217.0 620.0 L 1220.0 619.0 L 1225.0 613.0 L 1226.0 599.0 L 1224.0 594.0 L 1221.0 591.0 L 1217.0 589.0 Z M 1211.0 593.0 L 1216.0 593.0 L 1221.0 598.0 L 1222.0 603.0 L 1221.0 610.0 L 1216.0 616.0 L 1211.0 616.0 L 1206.0 610.0 L 1206.0 599.0 L 1207.0 596.0 Z M 1179.0 589.0 L 1174.0 592.0 L 1173.0 601.0 L 1177.0 605.0 L 1186.0 608.0 L 1188.0 610.0 L 1188.0 612.0 L 1184.0 616.0 L 1180.0 616.0 L 1174.0 612.0 L 1172.0 614.0 L 1172.0 616.0 L 1178.0 620.0 L 1186.0 620.0 L 1191.0 617.0 L 1192.0 608.0 L 1190.0 605.0 L 1179.0 601.0 L 1177.0 596.0 L 1180.0 593.0 L 1185.0 593.0 L 1188.0 596.0 L 1190.0 596.0 L 1191.0 592.0 L 1185.0 589.0 Z M 1000.0 589.0 L 997.0 590.0 L 991.0 597.0 L 990.0 601.0 L 991.0 612.0 L 995.0 618.0 L 999.0 620.0 L 1007.0 620.0 L 1013.0 615.0 L 1013.0 613.0 L 1009.0 612.0 L 1005.0 616.0 L 1000.0 616.0 L 996.0 612.0 L 995.0 609.0 L 995.0 600.0 L 996.0 597.0 L 1000.0 593.0 L 1007.0 594.0 L 1009.0 598.0 L 1013.0 597.0 L 1013.0 595.0 L 1008.0 590.0 Z M 941.0 589.0 L 938.0 590.0 L 935.0 593.0 L 934.0 600.0 L 937.0 604.0 L 946.0 607.0 L 949.0 610.0 L 949.0 613.0 L 946.0 616.0 L 941.0 616.0 L 937.0 612.0 L 934.0 613.0 L 933.0 615.0 L 937.0 619.0 L 948.0 620.0 L 953.0 616.0 L 954.0 609.0 L 950.0 604.0 L 941.0 601.0 L 939.0 599.0 L 939.0 595.0 L 942.0 593.0 L 946.0 593.0 L 951.0 596.0 L 953.0 594.0 L 949.0 590.0 Z M 893.0 590.0 L 890.0 593.0 L 890.0 600.0 L 892.0 603.0 L 887.0 608.0 L 886.0 611.0 L 887.0 616.0 L 892.0 620.0 L 900.0 620.0 L 904.0 617.0 L 907.0 620.0 L 911.0 620.0 L 911.0 618.0 L 907.0 614.0 L 909.0 606.0 L 905.0 606.0 L 905.0 609.0 L 903.0 610.0 L 898.0 604.0 L 902.0 601.0 L 904.0 597.0 L 903.0 592.0 L 898.0 589.0 Z M 894.0 606.0 L 901.0 614.0 L 899.0 616.0 L 894.0 616.0 L 891.0 613.0 L 891.0 609.0 Z M 898.0 593.0 L 900.0 596.0 L 896.0 601.0 L 893.0 596.0 L 895.0 593.0 Z M 755.0 589.0 L 752.0 590.0 L 747.0 595.0 L 745.0 600.0 L 745.0 609.0 L 750.0 618.0 L 754.0 620.0 L 762.0 620.0 L 768.0 615.0 L 770.0 611.0 L 771.0 606.0 L 770.0 598.0 L 764.0 590.0 Z M 756.0 593.0 L 760.0 593.0 L 764.0 597.0 L 766.0 603.0 L 765.0 610.0 L 760.0 616.0 L 754.0 615.0 L 751.0 612.0 L 750.0 609.0 L 751.0 598.0 Z M 707.0 589.0 L 703.0 591.0 L 701.0 594.0 L 701.0 601.0 L 703.0 604.0 L 714.0 608.0 L 715.0 613.0 L 712.0 616.0 L 708.0 616.0 L 702.0 612.0 L 700.0 614.0 L 700.0 616.0 L 705.0 620.0 L 714.0 620.0 L 719.0 617.0 L 720.0 608.0 L 718.0 605.0 L 708.0 601.0 L 705.0 598.0 L 705.0 596.0 L 708.0 593.0 L 712.0 593.0 L 717.0 596.0 L 719.0 595.0 L 719.0 593.0 L 716.0 590.0 Z M 662.0 589.0 L 659.0 590.0 L 654.0 595.0 L 652.0 601.0 L 652.0 608.0 L 653.0 612.0 L 657.0 618.0 L 661.0 620.0 L 669.0 620.0 L 674.0 616.0 L 675.0 612.0 L 671.0 611.0 L 667.0 616.0 L 661.0 615.0 L 657.0 609.0 L 657.0 601.0 L 659.0 596.0 L 663.0 593.0 L 667.0 593.0 L 671.0 598.0 L 675.0 597.0 L 675.0 595.0 L 670.0 590.0 Z M 161.0 540.0 L 161.0 580.0 L 163.0 582.0 L 214.0 613.0 L 292.0 663.0 L 294.0 663.0 L 425.0 579.0 L 425.0 570.0 L 423.0 568.0 L 389.0 547.0 L 389.0 559.0 L 293.0 621.0 L 196.0 560.0 L 193.0 557.0 L 193.0 540.0 Z M 161.0 433.0 L 161.0 486.0 L 169.0 490.0 L 180.0 498.0 L 216.0 520.0 L 293.0 571.0 L 333.0 546.0 L 333.0 544.0 L 324.0 539.0 L 315.0 532.0 L 198.0 457.0 L 189.0 450.0 Z M 255.0 441.0 L 257.0 444.0 L 268.0 450.0 L 417.0 547.0 L 425.0 551.0 L 425.0 502.0 L 420.0 498.0 L 384.0 476.0 L 294.0 417.0 L 289.0 419.0 Z"/>
  </g>
</svg>
